<?xml version="1.0" encoding="UTF-8" standalone="no"?>
<!DOCTYPE svg PUBLIC "-//W3C//DTD SVG 1.1//EN" "http://www.w3.org/Graphics/SVG/1.1/DTD/svg11.dtd">
<svg width="953px" height="141px" version="1.1" xmlns="http://www.w3.org/2000/svg" xmlns:xlink="http://www.w3.org/1999/xlink" xml:space="preserve" xmlns:serif="http://www.serif.com/" style="fill-rule:evenodd;clip-rule:evenodd;stroke-linejoin:round;stroke-miterlimit:2;">
    <g transform="matrix(1,0,0,1,-35.7701,-441.573)">
        <g transform="matrix(0.938183,0,0,0.92896,-201.267,-212.54)">
            <path d="M390.336,820.035c-13.026,21.413 -36.583,35.726 -63.457,35.726c-40.965,-0 -74.223,-33.258 -74.223,-74.223c-0,-40.965 33.258,-74.223 74.223,-74.223c26.164,-0 49.184,13.567 62.403,34.044l-1.076,2.457l-28.952,18.242l-3.207,-0.744c-0,0 -5.744,-8.223 -15.818,-12.632c-3.798,-1.662 -8.463,-2.355 -13.3,-2.484c-19.59,-0.521 -33.811,16.325 -34.534,35.34c-0.195,5.122 2.235,13.746 2.235,13.746c-1.685,1.138 12.455,19.289 23.514,20.852c6.101,0.863 16.361,2.062 25.081,-3.167c6.449,-3.867 10.242,-8.167 12.743,-11.642c0,0 1.574,-1.101 3.806,0.177c5.869,3.359 18.465,9.838 29.786,16.144c0.77,0.429 0.726,1.448 0.776,2.387Z" style="fill:#03aab3;"/>
        </g>
        <g transform="matrix(0.938183,0,0,0.92896,488.449,-212.54)">
            <path d="M390.336,820.035c-13.026,21.413 -36.583,35.726 -63.457,35.726c-40.965,-0 -74.223,-33.258 -74.223,-74.223c-0,-40.965 33.258,-74.223 74.223,-74.223c26.164,-0 49.184,13.567 62.403,34.044l-1.076,2.457l-28.952,18.242l-3.207,-0.744c-0,0 -5.744,-8.223 -15.818,-12.632c-3.798,-1.662 -8.463,-2.355 -13.3,-2.484c-19.59,-0.521 -33.811,16.325 -34.534,35.34c-0.195,5.122 2.235,13.746 2.235,13.746c-1.685,1.138 12.455,19.289 23.514,20.852c6.101,0.863 16.361,2.062 25.081,-3.167c6.449,-3.867 10.242,-8.167 12.743,-11.642c0,0 1.574,-1.101 3.806,0.177c5.869,3.359 18.465,9.838 29.786,16.144c0.77,0.429 0.726,1.448 0.776,2.387Z" style="fill:#e8131a;"/>
        </g>
        <g transform="matrix(0.835149,0,0,0.913339,-164.766,-201.496)">
            <path d="M521.304,838.778c-13.476,11.667 -31.154,18.747 -50.5,18.747c-42.212,-0 -76.482,-33.704 -76.482,-75.217c0,-41.513 34.27,-75.217 76.482,-75.217c19.346,0 37.024,7.08 50.5,18.747l-0,-12.193c-0,-1.384 1.23,-2.508 2.745,-2.508l34.371,0c1.516,0 2.746,1.124 2.746,2.508l-0,137.186c-0,1.384 -1.23,2.507 -2.746,2.507l-34.371,0c-1.515,0 -2.745,-1.123 -2.745,-2.507l-0,-12.053Zm-42.3,-93.407c-22.016,-0 -39.889,16.777 -39.889,37.442c-0,20.665 17.873,37.443 39.889,37.443c22.016,-0 39.89,-16.778 39.89,-37.443c-0,-20.665 -17.874,-37.442 -39.89,-37.442Z" style="fill:#03aab3;"/>
        </g>
        <g transform="matrix(0.835149,0,0,0.913339,114.244,-201.496)">
            <path d="M521.304,838.778c-13.476,11.667 -31.154,18.747 -50.5,18.747c-42.212,-0 -76.482,-33.704 -76.482,-75.217c0,-41.513 34.27,-75.217 76.482,-75.217c19.346,0 37.024,7.08 50.5,18.747l-0,-12.193c-0,-1.384 1.23,-2.508 2.745,-2.508l34.371,0c1.516,0 2.746,1.124 2.746,2.508l-0,137.186c-0,1.384 -1.23,2.507 -2.746,2.507l-34.371,0c-1.515,0 -2.745,-1.123 -2.745,-2.507l-0,-12.053Zm-42.3,-93.407c-22.016,-0 -39.889,16.777 -39.889,37.442c-0,20.665 17.873,37.443 39.889,37.443c22.016,-0 39.89,-16.778 39.89,-37.443c-0,-20.665 -17.874,-37.442 -39.89,-37.442Z" style="fill:#e8131a;"/>
        </g>
        <g transform="matrix(0.93991,0,0,0.922137,-209.99,-206.838)">
            <path d="M687.533,705.341l-0.07,101.844c0,-0 -3.661,12.732 -14.383,23.278c-11.098,10.917 -29.562,23.883 -49.216,25.02c-40.554,2.347 -70.651,-32.561 -69.417,-73.679c1.221,-40.646 31.105,-73.679 69.417,-73.679c12.075,0 22.133,6.41 32.027,12.174c0.195,0.114 0.374,0.106 0.546,0.04l-0,-14.998c-0,-1.203 0.959,-2.18 2.142,-2.18l26.812,0c1.183,0 2.142,0.977 2.142,2.18Zm-63.338,38.829c-18.53,-0.157 -32.221,17.406 -32.63,37.234c-0.419,20.332 14.195,38.352 33.609,38.497c17.679,0.132 32.913,-17.415 32.992,-37.589c0.076,-19.318 -16.006,-37.991 -33.971,-38.142Z" style="fill:#e8131a;"/>
        </g>
        <g transform="matrix(0.930189,0,0,0.92896,-218.656,-212.54)">
            <path d="M914.185,846.905c-0.032,-0.016 -0.064,-0.033 -0.096,-0.049l-0,1.272c-0,1.466 -1.191,2.656 -2.657,2.656l-33.255,0c-1.466,0 -2.656,-1.19 -2.656,-2.656l-0,-134.498c-0,-1.466 1.19,-2.656 2.656,-2.656l31.399,-0.078c1.466,-0 1.686,1.274 1.686,2.741l-0.461,9.438c0.819,0.673 1.624,0.994 2.413,0.908c1.323,-2.151 19.23,-14.973 32.161,-16.505c6.936,-0.821 15.197,0.61 23.803,2.628c0,0 16.105,7.845 20.979,13.14c14.212,15.439 15.722,31.165 14.292,30.899c-0,0 0.045,5.653 0.131,12.532c0.226,0.023 0.371,0.026 0.424,0.008l-0,82.523c-1.314,0.971 -2.223,1.761 -2.616,1.762l-32.751,0c-0.335,0.02 -1.364,0.001 -1.364,0.001l-0.971,-0.66c-0.101,0.033 -0.202,0.065 -0.303,0.097c0.147,-0.574 0.153,-0.928 0.153,-0.928l0.318,-82.147c0,-0 -0.824,-3.611 -3.309,-8.265c-1.276,-2.39 -3.461,-5.164 -5.217,-7.639c-2.362,-3.328 -8.696,-6.074 -9.326,-5.723c0,-0 -5.027,-0.315 -7.412,-0.445c-2.701,-0.148 -6.692,0.599 -9.983,2.112c-3.757,1.728 -6.79,4.399 -9.224,6.925c-6.519,6.768 -9.272,12.058 -9.272,12.058c-0,0 -0.4,68.209 0.458,80.549Z" style="fill:#e8131a;"/>
        </g>
        <g transform="matrix(0.930189,0,0,0.93092,-219.375,-214.216)">
            <path d="M1229.3,707.794c39.594,-0 68.936,31.531 68.936,72.125c0,3.464 -1.295,9.821 -1.295,9.821l-103.581,0.746c0,0 1.65,13.155 9.567,21.157c6.276,6.345 18.953,9.737 24.107,9.69c5.651,-0.051 14.955,-1.336 22.276,-5.739c8.059,-4.848 13.453,-11.206 13.453,-11.206l27.03,15.776c-0,-0 1.929,-0.868 0.018,2.349c-12.535,21.106 -35.541,31.856 -61.415,31.856c-24.779,0 -47.005,-12.133 -59.632,-31.587c-7.55,-11.633 -11.205,-26.247 -11.205,-41.438c0,-40.593 32.146,-73.55 71.741,-73.55Zm-4.196,32.53c-4.399,0.218 -12.615,3.924 -12.615,3.924c-0,-0 -6.632,3.702 -9.048,6.526c-2.942,3.438 -8.602,14.102 -8.602,14.102l1.213,1.502c0,0 14.831,-0.068 33.045,-0.068c18.213,0 29.81,0.017 29.81,0.017l1.205,-1.152c1.576,-0.207 -3.164,-9.059 -6.276,-12.557c-3.308,-3.718 -8.783,-7.7 -13.571,-9.749c-4.71,-2.015 -10.532,-2.775 -15.161,-2.545Z" style="fill:#e8131a;"/>
        </g>
    </g>
</svg>
