<?xml version="1.0" encoding="UTF-8" standalone="no"?>
<!DOCTYPE svg PUBLIC "-//W3C//DTD SVG 1.1//EN" "http://www.w3.org/Graphics/SVG/1.1/DTD/svg11.dtd">
<svg width="100%" height="100%" viewBox="0 0 953 206" version="1.1" xmlns="http://www.w3.org/2000/svg" xmlns:xlink="http://www.w3.org/1999/xlink" xml:space="preserve" xmlns:serif="http://www.serif.com/" style="fill-rule:evenodd;clip-rule:evenodd;stroke-linejoin:round;stroke-miterlimit:2;">
    <g transform="matrix(1,0,0,1,-35.7701,-776)">
        <g id="Layer1">
        </g>
        <g transform="matrix(1,0,0,1,0,398.982)">
            <g transform="matrix(0.938183,0,0,0.92896,-201.267,-212.54)">
                <path d="M390.336,820.035C377.31,841.448 353.753,855.761 326.879,855.761C285.914,855.761 252.656,822.503 252.656,781.538C252.656,740.573 285.914,707.315 326.879,707.315C353.043,707.315 376.063,720.882 389.282,741.359L388.206,743.816L359.254,762.058L356.047,761.314C356.047,761.314 350.303,753.091 340.229,748.682C336.431,747.02 331.766,746.327 326.929,746.198C307.339,745.677 293.118,762.523 292.395,781.538C292.2,786.66 294.63,795.284 294.63,795.284C292.945,796.422 307.085,814.573 318.144,816.136C324.245,816.999 334.505,818.198 343.225,812.969C349.674,809.102 353.467,804.802 355.968,801.327C355.968,801.327 357.542,800.226 359.774,801.504C365.643,804.863 378.239,811.342 389.56,817.648C390.33,818.077 390.286,819.096 390.336,820.035Z" style="fill:rgb(3,170,179);"/>
            </g>
            <g transform="matrix(0.938183,0,0,0.92896,488.449,-212.54)">
                <path d="M390.336,820.035C377.31,841.448 353.753,855.761 326.879,855.761C285.914,855.761 252.656,822.503 252.656,781.538C252.656,740.573 285.914,707.315 326.879,707.315C353.043,707.315 376.063,720.882 389.282,741.359L388.206,743.816L359.254,762.058L356.047,761.314C356.047,761.314 350.303,753.091 340.229,748.682C336.431,747.02 331.766,746.327 326.929,746.198C307.339,745.677 293.118,762.523 292.395,781.538C292.2,786.66 294.63,795.284 294.63,795.284C292.945,796.422 307.085,814.573 318.144,816.136C324.245,816.999 334.505,818.198 343.225,812.969C349.674,809.102 353.467,804.802 355.968,801.327C355.968,801.327 357.542,800.226 359.774,801.504C365.643,804.863 378.239,811.342 389.56,817.648C390.33,818.077 390.286,819.096 390.336,820.035Z" style="fill:rgb(232,19,26);"/>
            </g>
            <g transform="matrix(0.835149,0,0,0.913339,-164.766,-201.496)">
                <path d="M521.304,838.778C507.828,850.445 490.15,857.525 470.804,857.525C428.592,857.525 394.322,823.821 394.322,782.308C394.322,740.795 428.592,707.091 470.804,707.091C490.15,707.091 507.828,714.171 521.304,725.838L521.304,713.645C521.304,712.261 522.534,711.137 524.049,711.137L558.42,711.137C559.936,711.137 561.166,712.261 561.166,713.645L561.166,850.831C561.166,852.215 559.936,853.338 558.42,853.338L524.049,853.338C522.534,853.338 521.304,852.215 521.304,850.831L521.304,838.778ZM479.004,745.371C456.988,745.371 439.115,762.148 439.115,782.813C439.115,803.478 456.988,820.256 479.004,820.256C501.02,820.256 518.894,803.478 518.894,782.813C518.894,762.148 501.02,745.371 479.004,745.371Z" style="fill:rgb(3,170,179);"/>
            </g>
            <g transform="matrix(0.835149,0,0,0.913339,114.244,-201.496)">
                <path d="M521.304,838.778C507.828,850.445 490.15,857.525 470.804,857.525C428.592,857.525 394.322,823.821 394.322,782.308C394.322,740.795 428.592,707.091 470.804,707.091C490.15,707.091 507.828,714.171 521.304,725.838L521.304,713.645C521.304,712.261 522.534,711.137 524.049,711.137L558.42,711.137C559.936,711.137 561.166,712.261 561.166,713.645L561.166,850.831C561.166,852.215 559.936,853.338 558.42,853.338L524.049,853.338C522.534,853.338 521.304,852.215 521.304,850.831L521.304,838.778ZM479.004,745.371C456.988,745.371 439.115,762.148 439.115,782.813C439.115,803.478 456.988,820.256 479.004,820.256C501.02,820.256 518.894,803.478 518.894,782.813C518.894,762.148 501.02,745.371 479.004,745.371Z" style="fill:rgb(232,19,26);"/>
            </g>
            <g transform="matrix(0.93991,0,0,0.922137,-209.99,-206.838)">
                <path d="M687.533,705.341L687.463,807.185C687.463,807.185 683.802,819.917 673.08,830.463C661.982,841.38 643.518,854.346 623.864,855.483C583.31,857.83 553.213,822.922 554.447,781.804C555.668,741.158 585.552,708.125 623.864,708.125C635.939,708.125 645.997,714.535 655.891,720.299C656.086,720.413 656.265,720.405 656.437,720.339L656.437,705.341C656.437,704.138 657.396,703.161 658.579,703.161L685.391,703.161C686.574,703.161 687.533,704.138 687.533,705.341ZM624.195,744.17C605.665,744.013 591.974,761.576 591.565,781.404C591.146,801.736 605.76,819.756 625.174,819.901C642.853,820.033 658.087,802.486 658.166,782.312C658.242,762.994 642.16,744.321 624.195,744.17Z" style="fill:rgb(232,19,26);"/>
            </g>
            <g transform="matrix(0.887267,0,0,0.770946,-168.699,-0.230831)">
                <path d="M681.789,550.183L648.906,550.297L649.085,497.508C649.085,492.996 652.749,489.333 657.261,489.333L673.613,489.333C678.125,489.333 681.789,492.996 681.789,497.508L681.789,550.183Z" style="fill:rgb(232,19,26);"/>
            </g>
            <g transform="matrix(0.930189,0,0,0.92896,-218.656,-212.54)">
                <path d="M914.185,846.905C914.153,846.889 914.121,846.872 914.089,846.856L914.089,848.128C914.089,849.594 912.898,850.784 911.432,850.784L878.177,850.784C876.711,850.784 875.521,849.594 875.521,848.128L875.521,713.63C875.521,712.164 876.711,710.974 878.177,710.974L909.576,710.896C911.042,710.896 911.262,712.17 911.262,713.637L910.801,723.075C911.62,723.748 912.425,724.069 913.214,723.983C914.537,721.832 932.444,709.01 945.375,707.478C952.311,706.657 960.572,708.088 969.178,710.106C969.178,710.106 985.283,717.951 990.157,723.246C1004.37,738.685 1005.88,754.411 1004.45,754.145C1004.45,754.145 1004.49,759.798 1004.58,766.677C1004.81,766.7 1004.95,766.703 1005,766.685L1005,849.208C1003.69,850.179 1002.78,850.969 1002.39,850.97L969.637,850.97C969.302,850.99 968.273,850.971 968.273,850.971L967.302,850.311C967.201,850.344 967.1,850.376 966.999,850.408C967.146,849.834 967.152,849.48 967.152,849.48L967.47,767.333C967.47,767.333 966.646,763.722 964.161,759.068C962.885,756.678 960.7,753.904 958.944,751.429C956.582,748.101 950.248,745.355 949.618,745.706C949.618,745.706 944.591,745.391 942.206,745.261C939.505,745.113 935.514,745.86 932.223,747.373C928.466,749.101 925.433,751.772 922.999,754.298C916.48,761.066 913.727,766.356 913.727,766.356C913.727,766.356 913.327,834.565 914.185,846.905Z" style="fill:rgb(232,19,26);"/>
            </g>
            <g transform="matrix(0.930189,0,0,0.93092,-219.375,-214.216)">
                <path d="M1229.3,707.794C1268.89,707.794 1298.24,739.325 1298.24,779.919C1298.24,783.383 1296.94,789.74 1296.94,789.74L1193.36,790.486C1193.36,790.486 1195.01,803.641 1202.93,811.643C1209.2,817.988 1221.88,821.38 1227.03,821.333C1232.68,821.282 1241.99,819.997 1249.31,815.594C1257.37,810.746 1262.76,804.388 1262.76,804.388L1289.79,820.164C1289.79,820.164 1291.72,819.296 1289.81,822.513C1277.28,843.619 1254.27,854.369 1228.39,854.369C1203.62,854.369 1181.39,842.236 1168.76,822.782C1161.21,811.149 1157.56,796.535 1157.56,781.344C1157.56,740.751 1189.7,707.794 1229.3,707.794ZM1225.1,740.324C1220.7,740.542 1212.49,744.248 1212.49,744.248C1212.49,744.248 1205.86,747.95 1203.44,750.774C1200.5,754.212 1194.84,764.876 1194.84,764.876L1196.05,766.378C1196.05,766.378 1210.88,766.31 1229.1,766.31C1247.31,766.31 1258.91,766.327 1258.91,766.327L1260.11,765.175C1261.69,764.968 1256.95,756.116 1253.84,752.618C1250.53,748.9 1245.05,744.918 1240.26,742.869C1235.55,740.854 1229.73,740.094 1225.1,740.324Z" style="fill:rgb(232,19,26);"/>
            </g>
        </g>
    </g>
</svg>
