<?xml version="1.0" encoding="UTF-8" standalone="no"?>
<!DOCTYPE svg PUBLIC "-//W3C//DTD SVG 1.1//EN" "http://www.w3.org/Graphics/SVG/1.1/DTD/svg11.dtd">
<svg width="100%" height="100%" viewBox="0 0 953 651" version="1.1" xmlns="http://www.w3.org/2000/svg" xmlns:xlink="http://www.w3.org/1999/xlink" xml:space="preserve" xmlns:serif="http://www.serif.com/" style="fill-rule:evenodd;clip-rule:evenodd;">
    <g transform="matrix(1,0,0,1,-35.7701,-89.8496)">
        <g transform="matrix(1,0,0,1,0,157.427)">
            <g>
                <g transform="matrix(0.938183,0,0,0.92896,-201.267,-212.54)">
                    <path d="M390.336,820.035C377.31,841.448 353.753,855.761 326.879,855.761C285.914,855.761 252.656,822.503 252.656,781.538C252.656,740.573 285.914,707.315 326.879,707.315C353.043,707.315 376.063,720.882 389.282,741.359L388.206,743.816L359.254,762.058L356.047,761.314C356.047,761.314 350.303,753.091 340.229,748.682C336.431,747.02 331.766,746.327 326.929,746.198C307.339,745.677 293.118,762.523 292.395,781.538C292.2,786.66 294.63,795.284 294.63,795.284C292.945,796.422 307.085,814.573 318.144,816.136C324.245,816.999 334.505,818.198 343.225,812.969C349.674,809.102 353.467,804.802 355.968,801.327C355.968,801.327 357.542,800.226 359.774,801.504C365.643,804.863 378.239,811.342 389.56,817.648C390.33,818.077 390.286,819.096 390.336,820.035Z" style="fill:#03aab3;"/>
                </g>
                <g transform="matrix(0.938183,0,0,0.92896,488.449,-212.54)">
                    <path d="M390.336,820.035C377.31,841.448 353.753,855.761 326.879,855.761C285.914,855.761 252.656,822.503 252.656,781.538C252.656,740.573 285.914,707.315 326.879,707.315C353.043,707.315 376.063,720.882 389.282,741.359L388.206,743.816L359.254,762.058L356.047,761.314C356.047,761.314 350.303,753.091 340.229,748.682C336.431,747.02 331.766,746.327 326.929,746.198C307.339,745.677 293.118,762.523 292.395,781.538C292.2,786.66 294.63,795.284 294.63,795.284C292.945,796.422 307.085,814.573 318.144,816.136C324.245,816.999 334.505,818.198 343.225,812.969C349.674,809.102 353.467,804.802 355.968,801.327C355.968,801.327 357.542,800.226 359.774,801.504C365.643,804.863 378.239,811.342 389.56,817.648C390.33,818.077 390.286,819.096 390.336,820.035Z" style="fill:#e8131a;"/>
                </g>
                <g transform="matrix(0.835149,0,0,0.913339,-164.766,-201.496)">
                    <path d="M521.304,838.778C507.828,850.445 490.15,857.525 470.804,857.525C428.592,857.525 394.322,823.821 394.322,782.308C394.322,740.795 428.592,707.091 470.804,707.091C490.15,707.091 507.828,714.171 521.304,725.838L521.304,713.645C521.304,712.261 522.534,711.137 524.049,711.137L558.42,711.137C559.936,711.137 561.166,712.261 561.166,713.645L561.166,850.831C561.166,852.215 559.936,853.338 558.42,853.338L524.049,853.338C522.534,853.338 521.304,852.215 521.304,850.831L521.304,838.778ZM479.004,745.371C456.988,745.371 439.115,762.148 439.115,782.813C439.115,803.478 456.988,820.256 479.004,820.256C501.02,820.256 518.894,803.478 518.894,782.813C518.894,762.148 501.02,745.371 479.004,745.371Z" style="fill:#03aab3;"/>
                </g>
                <g transform="matrix(0.835149,0,0,0.913339,114.244,-201.496)">
                    <path d="M521.304,838.778C507.828,850.445 490.15,857.525 470.804,857.525C428.592,857.525 394.322,823.821 394.322,782.308C394.322,740.795 428.592,707.091 470.804,707.091C490.15,707.091 507.828,714.171 521.304,725.838L521.304,713.645C521.304,712.261 522.534,711.137 524.049,711.137L558.42,711.137C559.936,711.137 561.166,712.261 561.166,713.645L561.166,850.831C561.166,852.215 559.936,853.338 558.42,853.338L524.049,853.338C522.534,853.338 521.304,852.215 521.304,850.831L521.304,838.778ZM479.004,745.371C456.988,745.371 439.115,762.148 439.115,782.813C439.115,803.478 456.988,820.256 479.004,820.256C501.02,820.256 518.894,803.478 518.894,782.813C518.894,762.148 501.02,745.371 479.004,745.371Z" style="fill:#e8131a;"/>
                </g>
                <g transform="matrix(0.93991,0,0,0.922137,-209.99,-206.838)">
                    <path d="M687.533,705.341L687.463,807.185C687.463,807.185 683.802,819.917 673.08,830.463C661.982,841.38 643.518,854.346 623.864,855.483C583.31,857.83 553.213,822.922 554.447,781.804C555.668,741.158 585.552,708.125 623.864,708.125C635.939,708.125 645.997,714.535 655.891,720.299C656.086,720.413 656.265,720.405 656.437,720.339L656.437,705.341C656.437,704.138 657.396,703.161 658.579,703.161L685.391,703.161C686.574,703.161 687.533,704.138 687.533,705.341ZM624.195,744.17C605.665,744.013 591.974,761.576 591.565,781.404C591.146,801.736 605.76,819.756 625.174,819.901C642.853,820.033 658.087,802.486 658.166,782.312C658.242,762.994 642.16,744.321 624.195,744.17Z" style="fill:#e8131a;"/>
                </g>
                <g transform="matrix(0.930189,0,0,0.92896,-218.656,-212.54)">
                    <path d="M914.185,846.905C914.153,846.889 914.121,846.872 914.089,846.856L914.089,848.128C914.089,849.594 912.898,850.784 911.432,850.784L878.177,850.784C876.711,850.784 875.521,849.594 875.521,848.128L875.521,713.63C875.521,712.164 876.711,710.974 878.177,710.974L909.576,710.896C911.042,710.896 911.262,712.17 911.262,713.637L910.801,723.075C911.62,723.748 912.425,724.069 913.214,723.983C914.537,721.832 932.444,709.01 945.375,707.478C952.311,706.657 960.572,708.088 969.178,710.106C969.178,710.106 985.283,717.951 990.157,723.246C1004.37,738.685 1005.88,754.411 1004.45,754.145C1004.45,754.145 1004.49,759.798 1004.58,766.677C1004.81,766.7 1004.95,766.703 1005,766.685L1005,849.208C1003.69,850.179 1002.78,850.969 1002.39,850.97L969.637,850.97C969.302,850.99 968.273,850.971 968.273,850.971L967.302,850.311C967.201,850.344 967.1,850.376 966.999,850.408C967.146,849.834 967.152,849.48 967.152,849.48L967.47,767.333C967.47,767.333 966.646,763.722 964.161,759.068C962.885,756.678 960.7,753.904 958.944,751.429C956.582,748.101 950.248,745.355 949.618,745.706C949.618,745.706 944.591,745.391 942.206,745.261C939.505,745.113 935.514,745.86 932.223,747.373C928.466,749.101 925.433,751.772 922.999,754.298C916.48,761.066 913.727,766.356 913.727,766.356C913.727,766.356 913.327,834.565 914.185,846.905Z" style="fill:#e8131a;"/>
                </g>
                <g transform="matrix(0.930189,0,0,0.93092,-219.375,-214.216)">
                    <path d="M1229.3,707.794C1268.89,707.794 1298.24,739.325 1298.24,779.919C1298.24,783.383 1296.94,789.74 1296.94,789.74L1193.36,790.486C1193.36,790.486 1195.01,803.641 1202.93,811.643C1209.2,817.988 1221.88,821.38 1227.03,821.333C1232.68,821.282 1241.99,819.997 1249.31,815.594C1257.37,810.746 1262.76,804.388 1262.76,804.388L1289.79,820.164C1289.79,820.164 1291.72,819.296 1289.81,822.513C1277.28,843.619 1254.27,854.369 1228.39,854.369C1203.62,854.369 1181.39,842.236 1168.76,822.782C1161.21,811.149 1157.56,796.535 1157.56,781.344C1157.56,740.751 1189.7,707.794 1229.3,707.794ZM1225.1,740.324C1220.7,740.542 1212.49,744.248 1212.49,744.248C1212.49,744.248 1205.86,747.95 1203.44,750.774C1200.5,754.212 1194.84,764.876 1194.84,764.876L1196.05,766.378C1196.05,766.378 1210.88,766.31 1229.1,766.31C1247.31,766.31 1258.91,766.327 1258.91,766.327L1260.11,765.175C1261.69,764.968 1256.95,756.116 1253.84,752.618C1250.53,748.9 1245.05,744.918 1240.26,742.869C1235.55,740.854 1229.73,740.094 1225.1,740.324Z" style="fill:#e8131a;"/>
                </g>
            </g>
        </g>
        <g>
            <g transform="matrix(0.887267,0,0,0.886094,-168.118,66.8061)">
                <path d="M482.596,143.797C530.496,95.061 597.153,64.819 670.818,64.819C735.753,64.819 795.242,88.318 841.239,127.269L815.794,157.593C779.256,126.61 732.684,107.104 681.671,104.669C681.84,105.323 681.93,106.009 681.93,106.716L681.93,156.491C681.93,161.003 678.266,164.667 673.754,164.667L657.402,164.667C652.89,164.667 649.226,161.003 649.226,156.491L649.226,106.716C649.226,106.278 649.261,105.848 649.327,105.429C598.655,110.254 552.875,131.962 517.682,164.859L482.596,143.797Z" style="fill:#03aab3;"/>
            </g>
            <g transform="matrix(0.887267,0,0,0.886094,-168.118,66.8061)">
                <path d="M681.746,592.491C678.122,592.639 674.478,592.714 670.818,592.714C599.22,592.714 534.242,564.145 486.672,517.794L521.918,496.533C556.457,527.216 600.523,547.405 649.093,552.081C649.088,551.962 649.085,551.842 649.085,551.721L649.085,497.508C649.085,492.996 652.749,489.333 657.261,489.333L673.613,489.333C678.125,489.333 681.789,492.996 681.789,497.508L681.789,543.663L681.746,543.663L681.746,552.561C681.736,552.662 681.724,552.762 681.71,552.861C681.722,552.861 681.734,552.86 681.746,552.859L681.746,592.491ZM705.002,550.529C750.008,543.636 790.628,523.35 822.661,493.872C822.254,493.592 821.867,493.271 821.505,492.91L786.309,457.714C783.118,454.523 783.118,449.342 786.309,446.151L797.871,434.589C801.062,431.398 806.243,431.398 809.434,434.589L844.63,469.785C844.749,469.904 844.863,470.025 844.973,470.15C872.615,436.152 890.509,393.918 894.382,347.723C894.061,347.761 893.735,347.781 893.404,347.781L843.629,347.781C839.116,347.781 835.453,344.117 835.453,339.605L835.453,323.253C835.453,318.741 839.116,315.077 843.629,315.077L893.404,315.077C893.869,315.077 894.324,315.116 894.768,315.191C892.214,272.489 877.694,232.988 854.518,200.001L886.947,177.295C917.073,220.181 934.765,272.424 934.765,328.766C934.765,462.859 834.555,573.732 705.002,590.516L705.002,550.529Z" style="fill:#03aab3;"/>
            </g>
            <g transform="matrix(0.887267,0,0,0.886094,-168.118,66.8061)">
                <path d="M681.763,554.617L649.093,552.081C649.093,552.081 649.085,551.842 649.085,551.721L649.085,497.508C649.085,492.996 652.749,489.333 657.261,489.333L673.613,489.333C678.125,489.333 681.789,492.996 681.789,497.508L681.763,554.617Z" style="fill:#e8131a;"/>
            </g>
            <g transform="matrix(0.887267,0,0,0.886094,-173.631,-25.2869)">
                <path d="M899,220L715,371L760,400L764,400L907,229L907,226L902,220L899,220Z" style="fill:#e8131a;fill-rule:nonzero;stroke:#000;stroke-width:1px;"/>
            </g>
            <g transform="matrix(0.887267,0,0,0.886094,-173.631,-25.2869)">
                <path d="M564.478,302.11C557.978,305.976 557,311 557,311L557,561C557,561 557.642,567.682 564,571C570.147,574.207 579,571 579,571L774,454C774,454 788.505,442.999 789.155,436.582C789.863,429.59 779,421 779,421L577,300C577,300 571.029,298.215 564.478,302.11Z" style="fill:#03aab3;fill-rule:nonzero;stroke:#000;stroke-width:1px;"/>
            </g>
            <g transform="matrix(0.887267,0,0,0.886094,-168.118,66.8061)">
                <path d="M367.787,548.069L368.787,548.069L369.787,549.069L370.787,549.069L371.787,550.069L372.787,550.069L373.787,551.069L375.787,551.069L376.787,552.069L378.787,552.069L379.787,553.069L383.787,553.069L384.787,554.069L398.787,554.069L399.787,553.069L403.787,553.069L404.787,552.069L406.787,552.069L407.787,551.069L409.787,551.069L410.787,550.069L411.787,550.069L412.787,549.069L413.787,549.069L414.787,548.069L415.787,548.069L418.787,545.069L419.787,545.069L423.787,541.069L423.787,540.069L426.787,537.069L426.787,536.069L427.787,535.069L427.787,534.069L429.787,532.069L429.787,530.069L430.787,529.069L430.787,527.069L431.787,526.069L431.787,524.069L432.787,523.069L432.787,519.069L433.787,518.069L433.787,497.069L432.787,496.069L432.787,488.069L431.787,487.069L431.787,480.069L430.787,479.069L430.787,474.069L429.787,473.069L429.787,468.069L428.787,467.069L428.787,462.069L427.787,461.069L427.787,457.069L426.787,456.069L426.787,452.069L425.787,451.069L425.787,448.069L424.787,447.069L420.787,447.069L419.787,448.069L414.787,448.069L413.787,449.069L403.787,449.069L402.787,450.069L393.787,450.069L392.787,449.069L382.787,449.069L381.787,448.069L376.787,448.069L375.787,447.069L372.787,447.069L371.787,446.069L368.787,446.069L367.787,445.069L364.787,445.069L363.787,444.069L361.787,444.069L360.787,443.069L358.787,443.069L357.787,442.069L356.787,442.069L355.787,441.069L354.787,441.069L353.787,440.069L351.787,440.069L350.787,439.069L349.787,439.069L348.787,438.069L347.787,438.069L346.787,437.069L345.787,437.069L344.787,436.069L343.787,436.069L342.787,435.069L341.787,435.069L339.787,433.069L338.787,433.069L336.787,431.069L335.787,431.069L333.787,429.069L332.787,429.069L329.787,426.069L328.787,426.069L324.787,422.069L323.787,422.069L315.787,414.069L315.787,413.069L311.787,409.069L311.787,408.069L308.787,405.069L308.787,404.069L306.787,402.069L306.787,401.069L304.787,399.069L304.787,398.069L302.787,396.069L302.787,395.069L301.787,394.069L301.787,393.069L300.787,392.069L300.787,391.069L299.787,390.069L299.787,388.069L298.787,387.069L298.787,386.069L297.787,385.069L297.787,384.069L296.787,383.069L296.787,381.069L295.787,380.069L295.787,378.069L294.787,377.069L294.787,375.069L293.787,374.069L293.787,372.069L292.787,371.069L292.787,368.069L291.787,367.069L291.787,363.069L290.787,362.069L290.787,357.069L289.787,356.069L289.787,327.069L290.787,326.069L290.787,321.069L291.787,320.069L291.787,316.069L292.787,315.069L292.787,312.069L293.787,311.069L293.787,309.069L294.787,308.069L294.787,305.069L295.787,304.069L295.787,302.069L296.787,301.069L296.787,300.069L297.787,299.069L297.787,297.069L298.787,296.069L298.787,295.069L299.787,294.069L299.787,292.069L300.787,291.069L300.787,290.069L301.787,289.069L301.787,288.069L302.787,287.069L302.787,286.069L303.787,285.069L303.787,284.069L305.787,282.069L305.787,281.069L306.787,280.069L306.787,279.069L307.787,278.069L307.787,277.069L309.787,275.069L309.787,274.069L310.787,273.069L310.787,272.069L312.787,270.069L312.787,269.069L315.787,266.069L315.787,265.069L318.787,262.069L318.787,261.069L321.787,258.069L321.787,257.069L330.787,248.069L330.787,247.069L336.787,241.069L337.787,241.069L350.787,228.069L351.787,228.069L359.787,220.069L360.787,220.069L365.787,215.069L366.787,215.069L371.787,210.069L372.787,210.069L375.787,207.069L375.787,204.069L374.787,203.069L374.787,199.069L373.787,198.069L373.787,195.069L372.787,194.069L372.787,190.069L371.787,189.069L371.787,185.069L370.787,184.069L370.787,180.069L369.787,179.069L369.787,174.069L368.787,173.069L368.787,168.069L367.787,167.069L367.787,161.069L366.787,160.069L366.787,150.069L365.787,149.069L365.787,129.069L366.787,128.069L366.787,119.069L367.787,118.069L367.787,113.069L368.787,112.069L368.787,108.069L369.787,107.069L369.787,104.069L370.787,103.069L370.787,100.069L371.787,99.069L371.787,97.069L372.787,96.069L372.787,94.069L373.787,93.069L373.787,91.069L374.787,90.069L374.787,88.069L375.787,87.069L375.787,85.069L376.787,84.069L376.787,83.069L377.787,82.069L377.787,81.069L378.787,80.069L378.787,78.069L379.787,77.069L379.787,76.069L381.787,74.069L381.787,72.069L383.787,70.069L383.787,69.069L384.787,68.069L384.787,67.069L385.787,66.069L385.787,65.069L387.787,63.069L387.787,62.069L388.787,61.069L388.787,60.069L390.787,58.069L390.787,57.069L392.787,55.069L392.787,54.069L397.787,49.069L397.787,48.069L402.787,43.069L402.787,42.069L414.787,30.069L415.787,30.069L417.787,28.069L426.787,28.069L427.787,29.069L428.787,29.069L430.787,31.069L431.787,31.069L434.787,34.069L434.787,35.069L436.787,37.069L436.787,38.069L437.787,39.069L437.787,40.069L439.787,42.069L439.787,43.069L440.787,44.069L440.787,45.069L442.787,47.069L442.787,48.069L443.787,49.069L443.787,50.069L444.787,51.069L444.787,52.069L445.787,53.069L445.787,54.069L446.787,55.069L446.787,56.069L447.787,57.069L447.787,58.069L448.787,59.069L448.787,60.069L449.787,61.069L449.787,63.069L450.787,64.069L450.787,65.069L451.787,66.069L451.787,68.069L452.787,69.069L452.787,71.069L453.787,72.069L453.787,74.069L454.787,75.069L454.787,78.069L455.787,79.069L455.787,82.069L456.787,83.069L456.787,86.069L457.787,87.069L457.787,92.069L458.787,93.069L458.787,99.069L459.787,100.069L459.787,129.069L458.787,130.069L458.787,138.069L457.787,139.069L457.787,143.069L456.787,144.069L456.787,148.069L455.787,149.069L455.787,152.069L454.787,153.069L454.787,156.069L453.787,157.069L453.787,159.069L452.787,160.069L452.787,163.069L451.787,164.069L451.787,166.069L450.787,167.069L450.787,168.069L449.787,169.069L449.787,171.069L448.787,172.069L448.787,174.069L447.787,175.069L447.787,176.069L446.787,177.069L446.787,178.069L445.787,179.069L445.787,180.069L444.787,181.069L444.787,183.069L443.787,184.069L443.787,185.069L442.787,186.069L442.787,187.069L441.787,188.069L441.787,189.069L440.787,190.069L440.787,191.069L438.787,193.069L438.787,194.069L437.787,195.069L437.787,196.069L435.787,198.069L435.787,199.069L434.787,200.069L434.787,201.069L431.787,204.069L431.787,205.069L429.787,207.069L429.787,208.069L424.787,213.069L424.787,214.069L416.787,222.069L415.787,222.069L410.787,227.069L409.787,227.069L406.787,230.069L405.787,230.069L402.787,233.069L402.787,238.069L403.787,239.069L403.787,242.069L404.787,243.069L404.787,247.069L405.787,248.069L405.787,251.069L406.787,252.069L406.787,256.069L407.787,257.069L407.787,261.069L408.787,262.069L408.787,265.069L409.787,266.069L409.787,270.069L410.787,271.069L410.787,275.069L411.787,276.069L411.787,279.069L412.787,280.069L412.787,284.069L413.787,285.069L413.787,286.069L414.787,287.069L435.787,287.069L436.787,288.069L440.787,288.069L441.787,289.069L444.787,289.069L445.787,290.069L448.787,290.069L449.787,291.069L451.787,291.069L452.787,292.069L453.787,292.069L454.787,293.069L456.787,293.069L457.787,294.069L458.787,294.069L460.787,296.069L462.787,296.069L464.787,298.069L465.787,298.069L467.787,300.069L468.787,300.069L470.787,302.069L471.787,302.069L475.787,306.069L476.787,306.069L482.787,312.069L482.787,313.069L486.787,317.069L486.787,318.069L489.787,321.069L489.787,322.069L491.787,324.069L491.787,325.069L492.787,326.069L492.787,327.069L494.787,329.069L494.787,330.069L495.787,331.069L495.787,333.069L496.787,334.069L496.787,335.069L497.787,336.069L497.787,338.069L498.787,339.069L498.787,342.069L499.787,343.069L499.787,347.069L500.787,348.069L500.787,356.069L501.787,357.069L501.787,363.069L500.787,364.069L500.787,371.069L499.787,372.069L499.787,376.069L498.787,377.069L498.787,380.069L497.787,381.069L497.787,383.069L496.787,384.069L496.787,386.069L495.787,387.069L495.787,389.069L494.787,390.069L494.787,391.069L493.787,392.069L493.787,393.069L492.787,394.069L492.787,395.069L491.787,396.069L491.787,397.069L490.787,398.069L490.787,399.069L489.787,400.069L489.787,401.069L487.787,403.069L487.787,404.069L485.787,406.069L485.787,407.069L482.787,410.069L482.787,411.069L469.787,424.069L468.787,424.069L464.787,428.069L463.787,428.069L460.787,431.069L459.787,431.069L457.787,433.069L456.787,433.069L455.787,434.069L454.787,434.069L452.787,436.069L451.787,436.069L450.787,437.069L449.787,437.069L448.787,438.069L447.787,438.069L446.787,439.069L445.787,439.069L444.787,440.069L443.787,440.069L442.787,441.069L442.787,445.069L443.787,446.069L443.787,451.069L444.787,452.069L444.787,456.069L445.787,457.069L445.787,462.069L446.787,463.069L446.787,468.069L447.787,469.069L447.787,476.069L448.787,477.069L448.787,486.069L449.787,487.069L449.787,519.069L448.787,520.069L448.787,523.069L447.787,524.069L447.787,527.069L446.787,528.069L446.787,530.069L445.787,531.069L445.787,533.069L444.787,534.069L444.787,535.069L443.787,536.069L443.787,538.069L441.787,540.069L441.787,541.069L440.787,542.069L440.787,543.069L438.787,545.069L438.787,546.069L433.787,551.069L433.787,552.069L432.787,553.069L431.787,553.069L426.787,558.069L425.787,558.069L423.787,560.069L422.787,560.069L420.787,562.069L419.787,562.069L418.787,563.069L417.787,563.069L416.787,564.069L415.787,564.069L414.787,565.069L413.787,565.069L412.787,566.069L410.787,566.069L409.787,567.069L408.787,567.069L407.787,568.069L405.787,568.069L404.787,569.069L402.787,569.069L401.787,570.069L398.787,570.069L397.787,571.069L391.787,571.069L390.787,572.069L378.787,572.069L377.787,571.069L372.787,571.069L371.787,570.069L368.787,570.069L367.787,569.069L365.787,569.069L364.787,568.069L362.787,568.069L361.787,567.069L360.787,567.069L359.787,566.069L358.787,566.069L357.787,565.069L356.787,565.069L355.787,564.069L354.787,564.069L353.787,563.069L352.787,563.069L350.787,561.069L349.787,561.069L339.787,551.069L339.787,550.069L337.787,548.069L337.787,547.069L336.787,546.069L336.787,545.069L335.787,544.069L335.787,543.069L334.787,542.069L334.787,540.069L333.787,539.069L333.787,537.069L332.787,536.069L332.787,533.069L331.787,532.069L331.787,518.069L332.787,517.069L332.787,514.069L333.787,513.069L333.787,511.069L334.787,510.069L334.787,509.069L335.787,508.069L335.787,507.069L336.787,506.069L336.787,505.069L339.787,502.069L339.787,501.069L344.787,496.069L345.787,496.069L347.787,494.069L348.787,494.069L350.787,492.069L352.787,492.069L353.787,491.069L355.787,491.069L356.787,490.069L370.787,490.069L371.787,491.069L373.787,491.069L374.787,492.069L376.787,492.069L378.787,494.069L379.787,494.069L380.787,495.069L381.787,495.069L388.787,502.069L388.787,503.069L390.787,505.069L390.787,506.069L391.787,507.069L391.787,508.069L392.787,509.069L392.787,511.069L393.787,512.069L393.787,524.069L392.787,525.069L392.787,528.069L391.787,529.069L391.787,530.069L390.787,531.069L390.787,532.069L389.787,533.069L389.787,534.069L383.787,540.069L382.787,540.069L380.787,542.069L378.787,542.069L377.787,543.069L376.787,543.069L375.787,544.069L373.787,544.069L366.787,545.069L367.787,548.069ZM384.787,250.069L372.787,261.069L364.787,269.069L363.787,269.069L355.787,277.069L354.787,277.069L340.787,291.069L340.787,292.069L335.787,297.069L335.787,298.069L332.787,301.069L332.787,302.069L330.787,304.069L330.787,305.069L329.787,306.069L329.787,307.069L327.787,309.069L327.787,310.069L326.787,311.069L326.787,312.069L325.787,313.069L325.787,314.069L323.787,316.069L323.787,318.069L322.787,319.069L322.787,320.069L321.787,321.069L321.787,323.069L320.787,324.069L320.787,326.069L319.787,327.069L319.787,330.069L318.787,331.069L318.787,334.069L317.787,335.069L317.787,341.069L316.787,342.069L316.787,361.069L317.787,362.069L317.787,368.069L318.787,369.069L318.787,372.069L319.787,373.069L319.787,376.069L320.787,377.069L320.787,379.069L321.787,380.069L321.787,382.069L322.787,383.069L322.787,385.069L323.787,386.069L323.787,387.069L324.787,388.069L324.787,389.069L325.787,390.069L325.787,392.069L326.787,393.069L326.787,394.069L327.787,395.069L327.787,396.069L329.787,398.069L329.787,399.069L330.787,400.069L330.787,401.069L332.787,403.069L332.787,404.069L335.787,407.069L335.787,408.069L346.787,419.069L347.787,419.069L350.787,422.069L351.787,422.069L353.787,424.069L354.787,424.069L355.787,425.069L356.787,425.069L357.787,426.069L358.787,426.069L359.787,427.069L360.787,427.069L361.787,428.069L362.787,428.069L363.787,429.069L365.787,429.069L366.787,430.069L367.787,430.069L368.787,431.069L370.787,431.069L371.787,432.069L373.787,432.069L374.787,433.069L377.787,433.069L378.787,434.069L382.787,434.069L383.787,435.069L391.787,435.069L392.787,436.069L404.787,436.069L405.787,435.069L412.787,435.069L413.787,434.069L417.787,434.069L418.787,433.069L421.787,433.069L422.787,432.069L422.787,428.069L421.787,427.069L421.787,423.069L420.787,422.069L420.787,417.069L419.787,416.069L419.787,412.069L418.787,411.069L418.787,407.069L417.787,406.069L417.787,402.069L416.787,401.069L416.787,397.069L415.787,396.069L415.787,392.069L414.787,391.069L414.787,386.069L413.787,385.069L413.787,382.069L412.787,381.069L412.787,377.069L411.787,376.069L411.787,372.069L410.787,371.069L410.787,367.069L409.787,366.069L409.787,362.069L408.787,361.069L408.787,357.069L407.787,356.069L407.787,353.069L406.787,352.069L406.787,348.069L405.787,347.069L405.787,343.069L404.787,342.069L404.787,339.069L403.787,338.069L403.787,334.069L402.787,333.069L402.787,330.069L401.787,329.069L401.787,326.069L400.787,325.069L398.787,325.069L397.787,326.069L395.787,326.069L393.787,328.069L392.787,328.069L391.787,329.069L390.787,329.069L388.787,331.069L387.787,331.069L383.787,335.069L382.787,335.069L380.787,337.069L380.787,338.069L376.787,342.069L376.787,343.069L374.787,345.069L374.787,346.069L372.787,348.069L372.787,349.069L371.787,350.069L371.787,352.069L370.787,353.069L370.787,355.069L369.787,356.069L369.787,360.069L368.787,361.069L368.787,376.069L369.787,377.069L369.787,380.069L370.787,381.069L370.787,383.069L371.787,384.069L371.787,386.069L372.787,387.069L372.787,388.069L373.787,389.069L373.787,390.069L375.787,392.069L375.787,393.069L377.787,395.069L377.787,396.069L380.787,399.069L381.787,399.069L385.787,403.069L385.787,405.069L384.787,406.069L378.787,406.069L377.787,405.069L376.787,405.069L375.787,404.069L374.787,404.069L373.787,403.069L372.787,403.069L369.787,400.069L368.787,400.069L364.787,396.069L364.787,395.069L361.787,392.069L361.787,391.069L359.787,389.069L359.787,388.069L358.787,387.069L358.787,386.069L357.787,385.069L357.787,384.069L356.787,383.069L356.787,381.069L355.787,380.069L355.787,379.069L354.787,378.069L354.787,376.069L353.787,375.069L353.787,372.069L352.787,371.069L352.787,367.069L351.787,366.069L351.787,348.069L352.787,347.069L352.787,343.069L353.787,342.069L353.787,339.069L354.787,338.069L354.787,336.069L355.787,335.069L355.787,333.069L356.787,332.069L356.787,331.069L357.787,330.069L357.787,328.069L359.787,326.069L359.787,325.069L360.787,324.069L360.787,323.069L362.787,321.069L362.787,320.069L364.787,318.069L364.787,317.069L367.787,314.069L367.787,313.069L378.787,302.069L379.787,302.069L382.787,299.069L383.787,299.069L385.787,297.069L386.787,297.069L387.787,296.069L388.787,296.069L390.787,294.069L391.787,294.069L393.787,292.069L393.787,288.069L392.787,287.069L392.787,284.069L391.787,283.069L391.787,279.069L390.787,278.069L390.787,274.069L389.787,273.069L389.787,269.069L388.787,268.069L388.787,264.069L387.787,263.069L387.787,259.069L386.787,258.069L386.787,253.069L385.787,252.069L385.787,251.069L384.787,250.069ZM422.787,320.069L421.787,324.069L422.787,325.069L422.787,331.069L423.787,332.069L423.787,337.069L424.787,338.069L424.787,345.069L425.787,346.069L425.787,354.069L426.787,355.069L426.787,366.069L427.787,367.069L427.787,379.069L428.787,380.069L428.787,388.069L429.787,389.069L429.787,394.069L430.787,395.069L430.787,398.069L431.787,399.069L431.787,403.069L432.787,404.069L432.787,406.069L433.787,407.069L433.787,410.069L434.787,411.069L434.787,413.069L435.787,414.069L435.787,417.069L436.787,418.069L436.787,420.069L437.787,421.069L437.787,423.069L438.787,424.069L438.787,425.069L439.787,426.069L440.787,426.069L441.787,425.069L442.787,425.069L444.787,423.069L445.787,423.069L447.787,421.069L448.787,421.069L452.787,417.069L453.787,417.069L457.787,413.069L457.787,412.069L461.787,408.069L461.787,407.069L463.787,405.069L463.787,404.069L464.787,403.069L464.787,402.069L465.787,401.069L465.787,400.069L466.787,399.069L466.787,398.069L467.787,397.069L467.787,396.069L468.787,395.069L468.787,393.069L469.787,392.069L469.787,390.069L470.787,389.069L470.787,385.069L471.787,384.069L471.787,363.069L470.787,362.069L470.787,358.069L469.787,357.069L469.787,355.069L468.787,354.069L468.787,352.069L467.787,351.069L467.787,350.069L466.787,349.069L466.787,348.069L465.787,347.069L465.787,346.069L463.787,344.069L463.787,343.069L461.787,341.069L461.787,340.069L450.787,329.069L449.787,329.069L447.787,327.069L446.787,327.069L444.787,325.069L443.787,325.069L442.787,324.069L440.787,324.069L439.787,323.069L438.787,323.069L437.787,322.069L434.787,322.069L433.787,321.069L428.787,321.069L427.787,320.069L422.787,320.069ZM419.787,69.069L417.787,70.069L415.787,72.069L414.787,72.069L404.787,82.069L404.787,83.069L401.787,86.069L401.787,87.069L399.787,89.069L399.787,90.069L397.787,92.069L397.787,93.069L396.787,94.069L396.787,95.069L395.787,96.069L395.787,97.069L394.787,98.069L394.787,99.069L393.787,100.069L393.787,101.069L392.787,102.069L392.787,104.069L391.787,105.069L391.787,107.069L390.787,108.069L390.787,110.069L389.787,111.069L389.787,113.069L388.787,114.069L388.787,117.069L387.787,118.069L387.787,122.069L386.787,123.069L386.787,129.069L385.787,130.069L385.787,145.069L384.787,146.069L385.787,147.069L385.787,163.069L386.787,164.069L386.787,170.069L387.787,171.069L387.787,176.069L388.787,177.069L388.787,181.069L389.787,182.069L389.787,186.069L390.787,187.069L390.787,190.069L391.787,191.069L391.787,193.069L392.787,194.069L393.787,194.069L395.787,192.069L396.787,192.069L402.787,186.069L402.787,185.069L407.787,180.069L407.787,179.069L411.787,175.069L411.787,174.069L413.787,172.069L413.787,171.069L415.787,169.069L415.787,168.069L416.787,167.069L416.787,166.069L418.787,164.069L418.787,163.069L419.787,162.069L419.787,161.069L420.787,160.069L420.787,159.069L421.787,158.069L421.787,157.069L422.787,156.069L422.787,155.069L423.787,154.069L423.787,153.069L424.787,152.069L424.787,151.069L425.787,150.069L425.787,148.069L426.787,147.069L426.787,146.069L427.787,145.069L427.787,143.069L428.787,142.069L428.787,141.069L429.787,140.069L429.787,138.069L430.787,137.069L430.787,135.069L431.787,134.069L431.787,131.069L432.787,130.069L432.787,128.069L433.787,127.069L433.787,123.069L434.787,122.069L434.787,117.069L435.787,116.069L435.787,108.069L436.787,107.069L436.787,96.069L435.787,95.069L435.787,88.069L434.787,87.069L434.787,83.069L433.787,82.069L433.787,80.069L432.787,79.069L432.787,77.069L430.787,75.069L430.787,74.069L426.787,70.069L425.787,70.069L424.787,69.069L419.787,69.069Z" style="fill:#03aab3;stroke:#000;stroke-width:1px;"/>
            </g>
        </g>
    </g>
</svg>
